<?xml version="1.0" encoding="utf-8"?>
<!-- Generator: Adobe Illustrator 22.1.0, SVG Export Plug-In . SVG Version: 6.00 Build 0)  -->
<svg version="1.1" id="katman_1" xmlns="http://www.w3.org/2000/svg" xmlns:xlink="http://www.w3.org/1999/xlink" x="0px" y="0px"
	 viewBox="0 0 180 131.7" style="enable-background:new 0 0 180 131.7;" xml:space="preserve">
<style type="text/css">
	.st0{fill:#8A6E4E;}
</style>
<g>
	<g>
		<path class="st0" d="M177.5,29.7H2.5c-1.4,0-2.5-1.1-2.5-2.5L0,2.5C0,1.1,1.1,0,2.5,0l175,0c1.4,0,2.5,1.1,2.5,2.5v24.7
			C180,28.6,178.9,29.7,177.5,29.7z"/>
	</g>
	<g>
		<path class="st0" d="M177.5,131.7H2.5c-1.4,0-2.5-1.1-2.5-2.5l0-24.7c0-1.4,1.1-2.5,2.5-2.5h175c1.4,0,2.5,1.1,2.5,2.5v24.7
			C180,130.6,178.9,131.7,177.5,131.7z"/>
	</g>
	<g>
		<path class="st0" d="M177.5,80.7H21.6c-1.4,0-2.5-1.1-2.5-2.5V53.5c0-1.4,1.1-2.5,2.5-2.5h155.9c1.4,0,2.5,1.1,2.5,2.5v24.7
			C180,79.6,178.9,80.7,177.5,80.7z"/>
	</g>
</g>
</svg>
